<mxfile host="app.diagrams.net" modified="2024-03-13T11:42:23.888Z" agent="Mozilla/5.0 (Windows NT 10.0; Win64; x64) AppleWebKit/537.36 (KHTML, like Gecko) Chrome/122.0.0.0 Safari/537.36" etag="cpQVwvJYWD1RsDOI66lw" version="24.0.5" type="device">
  <diagram name="Página-1" id="4GJPyqBRDQVcVWHxA0mi">
    <mxGraphModel dx="1456" dy="1123" grid="0" gridSize="10" guides="1" tooltips="1" connect="1" arrows="1" fold="1" page="0" pageScale="1" pageWidth="827" pageHeight="1169" math="0" shadow="0">
      <root>
        <mxCell id="0" />
        <mxCell id="1" parent="0" />
        <mxCell id="3Vsd8OLqnuUb0uVJS76u-1" value="" style="rounded=0;whiteSpace=wrap;html=1;" vertex="1" parent="1">
          <mxGeometry x="188" y="-316" width="871" height="507" as="geometry" />
        </mxCell>
        <mxCell id="3Vsd8OLqnuUb0uVJS76u-2" value="" style="endArrow=none;html=1;rounded=0;fontSize=12;startSize=8;endSize=8;curved=1;exitX=0.25;exitY=0;exitDx=0;exitDy=0;entryX=0.25;entryY=1;entryDx=0;entryDy=0;" edge="1" parent="1" source="3Vsd8OLqnuUb0uVJS76u-1" target="3Vsd8OLqnuUb0uVJS76u-1">
          <mxGeometry width="50" height="50" relative="1" as="geometry">
            <mxPoint x="175" y="225" as="sourcePoint" />
            <mxPoint x="225" y="175" as="targetPoint" />
          </mxGeometry>
        </mxCell>
        <mxCell id="3Vsd8OLqnuUb0uVJS76u-3" value="Foto" style="ellipse;whiteSpace=wrap;html=1;aspect=fixed;" vertex="1" parent="1">
          <mxGeometry x="232" y="-290" width="149" height="149" as="geometry" />
        </mxCell>
        <mxCell id="3Vsd8OLqnuUb0uVJS76u-4" value="Sobre mim" style="rounded=0;whiteSpace=wrap;html=1;" vertex="1" parent="1">
          <mxGeometry x="219.5" y="-9" width="165.5" height="110" as="geometry" />
        </mxCell>
        <mxCell id="3Vsd8OLqnuUb0uVJS76u-5" value="Contatos" style="rounded=0;whiteSpace=wrap;html=1;" vertex="1" parent="1">
          <mxGeometry x="215" y="115" width="169" height="60" as="geometry" />
        </mxCell>
        <mxCell id="3Vsd8OLqnuUb0uVJS76u-7" value="Menu" style="rounded=0;whiteSpace=wrap;html=1;" vertex="1" parent="1">
          <mxGeometry x="237" y="-123" width="128" height="103" as="geometry" />
        </mxCell>
        <mxCell id="3Vsd8OLqnuUb0uVJS76u-8" value="Formação&lt;div&gt;Competências&lt;/div&gt;&lt;div&gt;Habilidades&lt;/div&gt;" style="rounded=0;whiteSpace=wrap;html=1;" vertex="1" parent="1">
          <mxGeometry x="413" y="-310" width="210" height="490" as="geometry" />
        </mxCell>
        <mxCell id="3Vsd8OLqnuUb0uVJS76u-9" value="Experiências&amp;nbsp;&lt;div&gt;passadas&lt;/div&gt;" style="rounded=0;whiteSpace=wrap;html=1;" vertex="1" parent="1">
          <mxGeometry x="630" y="-309.5" width="234" height="494" as="geometry" />
        </mxCell>
        <mxCell id="3Vsd8OLqnuUb0uVJS76u-10" value="Contato" style="rounded=0;whiteSpace=wrap;html=1;" vertex="1" parent="1">
          <mxGeometry x="869" y="-310" width="184" height="496" as="geometry" />
        </mxCell>
      </root>
    </mxGraphModel>
  </diagram>
</mxfile>
